<svg xmlns="http://www.w3.org/2000/svg" width="512" height="512" viewBox="0 0 512 512">
<g>
<path d="M 388.44 501.62 L 384.66 504.50 L 203.58 504.75 L 22.50 505.01 L 18.17 502.86 C15.64,501.60 12.73,499.03 11.17,496.68 L 8.50 492.65 L 8.50 19.35 L 11.16 15.33 C12.62,13.12 15.55,10.45 17.66,9.41 C21.39,7.56 26.03,7.50 175.50,7.50 L 329.50 7.50 L 333.00 9.70 C339.08,13.51 392.74,68.11 394.45,72.22 C395.81,75.48 396.00,87.27 396.00,169.27 L 396.00 262.61 L 399.58 266.05 C404.39,270.68 413.28,284.13 417.12,292.60 C422.90,305.35 425.26,316.77 425.36,332.50 C425.49,351.13 423.41,360.81 415.71,377.32 L 411.60 386.13 L 421.55 395.49 C429.55,403.00 431.94,404.74 433.76,404.31 C435.01,404.02 438.10,404.09 440.64,404.47 C445.04,405.13 446.58,406.44 472.80,431.83 C487.94,446.50 501.16,459.85 502.16,461.50 C504.59,465.47 504.59,473.53 502.16,477.50 C498.98,482.71 479.64,502.25 476.28,503.65 C471.63,505.60 466.01,505.30 462.07,502.90 C459.02,501.04 451.10,493.50 413.85,457.00 C403.50,446.85 401.30,442.75 402.63,436.08 C403.16,433.46 402.77,432.37 400.45,429.95 C398.90,428.33 397.26,427.00 396.81,427.00 C396.37,427.00 395.99,441.29 395.98,458.75 C395.95,494.59 395.69,496.08 388.44,501.62 ZM 24.67 488.34 C25.04,488.70 105.03,488.89 202.42,488.75 L 379.50 488.50 L 379.76 454.25 C379.91,435.02 379.64,420.00 379.15,420.00 C378.66,420.00 373.94,422.05 368.66,424.55 C336.47,439.80 300.55,437.60 270.95,418.56 C260.32,411.73 244.70,395.56 238.53,385.00 C232.77,375.14 227.50,360.55 225.76,349.64 L 224.55 342.00 L 44.35 342.00 L 42.01 339.51 C38.73,336.02 38.89,331.35 42.39,328.34 L 45.11 326.00 L 225.00 326.00 L 225.00 323.57 C225.00,320.92 227.45,308.58 228.54,305.75 C229.18,304.09 224.43,304.00 137.33,304.00 C54.70,304.00 45.21,303.84 43.16,302.40 C38.12,298.87 38.38,291.52 43.61,289.13 C45.40,288.32 72.56,288.00 140.86,288.00 L 235.63 288.00 L 237.19 284.73 C238.05,282.93 241.51,277.80 244.87,273.33 C273.75,235.00 325.76,222.62 369.71,243.60 C374.78,246.02 379.17,248.00 379.46,248.00 C379.76,248.00 380.00,211.10 380.00,166.00 L 380.00 84.00 L 355.97 84.00 C329.47,84.00 327.39,83.63 322.70,78.06 L 320.00 74.85 L 320.00 22.92 L 173.37 23.04 C92.72,23.11 26.12,23.40 25.37,23.69 C24.22,24.13 24.00,61.00 24.00,255.94 C24.00,383.39 24.30,487.97 24.67,488.34 ZM 313.54 417.89 C337.30,421.35 363.86,413.15 381.46,396.93 C386.71,392.10 396.04,380.78 398.32,376.50 C406.47,361.17 409.24,350.66 409.37,334.50 C409.49,320.47 408.62,315.52 403.79,302.80 C401.27,296.17 396.00,286.78 391.73,281.30 C388.37,276.98 377.78,267.47 372.00,263.57 C329.42,234.86 270.13,251.48 248.56,298.16 C242.47,311.35 240.73,320.45 241.24,336.50 C241.63,348.92 242.04,351.55 244.85,359.85 C252.51,382.41 267.71,399.87 288.50,409.97 C297.42,414.31 304.65,416.59 313.54,417.89 ZM 342.56 404.98 C323.29,409.89 299.74,405.52 283.99,394.11 C268.98,383.23 259.12,369.15 254.32,351.70 C251.64,341.96 251.90,323.53 254.86,314.04 C262.76,288.68 279.75,271.68 305.00,263.86 C311.15,261.96 314.75,261.54 325.00,261.54 C339.69,261.53 346.37,263.04 359.00,269.23 C365.95,272.63 369.18,275.08 376.69,282.62 C384.49,290.45 386.55,293.25 390.36,301.17 C396.51,313.97 398.41,323.30 397.73,337.40 C397.13,349.80 394.70,359.13 389.77,368.00 C379.31,386.83 362.68,399.85 342.56,404.98 ZM 319.00 225.82 C297.28,230.78 276.28,224.55 260.30,208.41 C249.00,197.00 243.35,184.44 242.36,168.50 C241.21,149.96 246.98,134.98 260.48,121.49 C273.26,108.71 286.84,103.00 304.42,103.00 C320.92,103.00 335.08,108.46 346.66,119.30 C354.76,126.88 359.67,134.40 363.40,144.96 C366.06,152.49 366.41,154.80 366.40,164.50 C366.38,177.11 365.43,181.22 359.81,192.92 C354.18,204.68 343.91,214.92 332.00,220.68 C327.33,222.94 321.48,225.25 319.00,225.82 ZM 212.01 166.49 C209.72,167.68 205.31,167.98 191.30,167.92 C181.51,167.88 172.30,167.40 170.84,166.87 C165.09,164.76 165.00,163.88 165.00,110.05 C165.00,58.24 165.16,56.30 169.54,54.62 C170.44,54.28 180.30,54.00 191.47,54.00 C209.97,54.00 211.99,54.17 214.14,55.91 L 216.50 57.82 L 216.80 107.66 C217.01,141.62 216.76,158.69 216.02,161.24 C215.29,163.74 213.95,165.49 212.01,166.49 ZM 152.59 164.69 L 150.18 167.50 L 131.34 167.72 C112.53,167.93 109.32,167.50 105.77,164.29 C104.13,162.81 104.00,159.72 104.00,123.42 L 104.00 84.15 L 106.63 82.07 C109.11,80.13 110.55,80.00 129.68,80.00 C150.02,80.00 150.10,80.01 152.55,82.45 L 155.00 84.91 L 155.00 161.89 ZM 273.99 358.99 L 276.11 363.14 L 279.88 357.32 C283.88,351.14 293.29,341.94 298.18,339.40 C299.80,338.57 300.99,337.57 300.81,337.18 C300.64,336.79 299.15,333.78 297.50,330.49 C294.96,325.41 294.50,323.36 294.52,317.00 C294.54,308.23 296.72,302.53 302.48,296.16 C313.82,283.60 334.95,283.26 347.19,295.44 C356.91,305.11 358.79,322.00 351.40,333.29 C348.95,337.03 348.94,339.00 351.36,339.00 C354.04,339.00 365.92,350.07 369.54,355.94 C371.60,359.27 373.61,362.00 374.01,362.00 C375.31,362.00 379.82,350.62 380.92,344.57 C383.22,331.94 381.06,317.50 375.27,306.68 C371.15,298.98 358.83,287.17 350.77,283.21 C334.35,275.13 316.79,275.10 300.13,283.14 C280.89,292.42 268.00,313.03 268.00,334.52 C268.00,340.72 271.07,353.26 273.99,358.99 ZM 246.32 264.84 C244.70,265.70 218.59,265.99 145.32,265.96 C140.60,265.96 136.09,265.96 131.79,265.96 C51.30,265.93 43.16,265.93 40.99,262.33 C40.63,261.73 40.43,261.04 40.09,260.22 C38.67,256.78 39.93,252.64 42.89,251.06 C44.25,250.33 76.60,250.00 145.90,250.00 L 246.92 250.00 L 248.96 252.19 C252.58,256.08 251.31,262.18 246.32,264.84 ZM 87.62 166.98 C86.02,167.54 77.01,167.99 67.60,167.98 C48.94,167.95 45.29,167.12 43.13,162.39 C42.38,160.74 42.00,151.14 42.00,133.91 L 42.00 107.91 L 44.45 105.45 C46.91,103.00 46.94,103.00 67.95,103.00 C87.40,103.00 89.15,103.15 90.93,104.93 C93.76,107.76 94.23,113.26 93.83,138.64 C93.44,163.60 93.12,165.07 87.62,166.98 ZM 248.42 225.08 L 245.84 227.50 L 146.67 227.74 C142.18,227.75 137.88,227.76 133.76,227.77 C51.67,227.97 43.26,227.99 40.97,224.26 C40.60,223.65 40.39,222.93 40.04,222.10 C38.67,218.78 39.98,214.62 42.89,213.06 C44.25,212.33 76.61,212.00 145.93,212.00 C245.67,212.00 247.03,212.03 249.00,214.00 C251.90,216.90 251.63,222.06 248.42,225.08 ZM 298.50 211.01 C301.25,211.44 304.40,211.62 305.50,211.41 C306.60,211.20 308.88,211.02 310.56,211.01 C312.24,211.01 314.42,210.42 315.39,209.70 C317.04,208.50 316.40,206.85 306.58,187.12 L 296.00 165.84 L 296.00 120.00 L 293.72 120.00 C292.47,120.00 288.27,121.52 284.39,123.38 C268.43,131.03 257.97,147.51 258.01,164.96 C258.06,187.47 275.60,207.41 298.50,211.01 ZM 311.32 389.01 C327.44,393.23 342.93,390.35 358.11,380.31 C361.48,378.08 361.74,377.58 360.98,374.93 C358.23,365.34 350.04,355.67 341.45,351.87 C326.69,345.35 309.27,348.53 298.55,359.72 C294.25,364.20 289.00,373.42 289.00,376.48 C289.00,379.56 301.03,386.31 311.32,389.01 ZM 418.54 439.32 L 469.50 488.90 L 478.77 479.70 C483.87,474.64 487.92,469.96 487.77,469.31 C487.47,468.00 438.01,420.00 436.97,420.00 C436.61,420.00 432.32,424.35 427.43,429.66 ZM 213.08 388.08 L 210.15 391.00 L 101.85 391.00 L 98.92 388.08 C97.32,386.47 96.00,384.42 96.00,383.53 C96.00,381.06 98.72,376.32 100.54,375.62 C101.44,375.28 126.67,375.00 156.63,375.00 L 211.09 375.00 L 213.55 377.45 C216.85,380.76 216.68,384.47 213.08,388.08 ZM 212.09 433.72 C210.89,434.64 197.30,434.94 156.17,434.97 L 101.85 435.00 L 98.81 431.96 C96.25,429.41 95.87,428.41 96.41,425.72 C96.67,424.40 96.75,423.35 97.22,422.53 C99.06,419.29 106.90,419.47 155.56,419.23 L 211.04 418.95 L 213.52 421.43 C217.09,425.00 216.46,430.36 212.09,433.72 ZM 181.70 151.37 C182.09,151.75 186.47,151.94 191.45,151.78 L 200.50 151.50 L 200.76 116.39 C200.91,97.09 200.68,78.86 200.25,75.89 L 199.48 70.50 L 190.24 70.21 L 181.00 69.92 L 181.00 110.30 C181.00,132.50 181.32,150.98 181.70,151.37 ZM 120.70 151.37 C121.09,151.76 125.25,151.94 129.95,151.79 L 138.50 151.50 L 138.77 123.75 L 139.03 96.00 L 120.00 96.00 L 120.00 123.33 C120.00,138.37 120.32,150.98 120.70,151.37 ZM 326.71 156.22 C328.21,156.25 329.61,156.28 330.92,156.31 C345.39,156.64 348.66,156.71 349.23,155.51 C349.40,155.15 349.33,154.69 349.25,154.09 C349.23,153.91 349.20,153.71 349.18,153.50 C348.60,148.17 343.03,138.12 337.53,132.49 C331.87,126.69 319.78,120.00 314.96,120.00 L 312.36 120.00 L 312.75 136.75 C312.96,145.96 313.31,154.05 313.52,154.72 C313.80,155.58 317.73,156.02 326.71,156.22 ZM 318.41 330.11 C330.60,337.54 344.79,323.19 338.08,310.21 C332.31,299.05 314.91,300.66 310.92,312.73 C308.80,319.18 311.76,326.05 318.41,330.11 ZM 58.67 151.33 C59.03,151.70 63.28,152.00 68.10,152.00 L 76.87 152.00 L 77.18 149.25 C77.36,147.74 77.36,140.31 77.20,132.75 L 76.89 119.00 L 58.00 119.00 L 58.00 134.83 C58.00,143.54 58.30,150.97 58.67,151.33 ZM 336.00 52.00 L 336.00 68.00 L 351.33 68.00 C359.77,68.00 366.98,67.68 367.37,67.30 C368.08,66.59 338.17,36.00 336.76,36.00 C336.34,36.00 336.00,43.20 336.00,52.00 ZM 329.38 196.88 L 332.17 202.26 L 337.14 197.38 C341.93,192.69 348.16,181.84 349.58,175.75 L 350.22 173.00 L 334.11 173.00 C325.25,173.00 318.00,173.18 318.00,173.41 C318.00,173.92 325.59,189.58 329.38,196.88 ZM 66.36 438.62 L 66.24 438.67 C64.37,439.45 63.37,439.87 62.37,439.87 C61.20,439.86 60.03,439.27 57.47,438.00 C49.72,434.17 47.46,424.88 52.81,418.89 C56.36,414.92 63.77,413.80 68.91,416.46 C77.60,420.95 76.03,434.58 66.36,438.62 ZM 69.86 392.47 C67.67,394.31 65.71,394.99 62.67,394.97 C55.14,394.93 50.00,389.73 50.00,382.17 C50.00,378.97 50.69,377.41 53.37,374.57 C56.44,371.31 57.22,371.00 62.29,371.00 C67.13,371.00 68.23,371.39 70.84,374.00 C76.28,379.43 75.85,387.42 69.86,392.47 ZM 405.51 412.44 C409.90,416.55 413.76,419.92 414.08,419.95 C414.39,419.98 415.62,418.97 416.81,417.71 L 418.96 415.41 L 410.97 407.47 C402.63,399.18 401.43,398.78 398.58,403.31 C397.70,404.70 398.88,406.25 405.51,412.44 Z" fill="rgb(1,1,1)"/>
<path d="M 273.99 358.99 C271.07,353.26 268.00,340.72 268.00,334.52 C268.00,323.17 271.60,312.06 277.83,302.74 C275.60,306.36 273.82,310.32 272.49,314.62 C270.56,320.90 270.25,323.75 270.57,332.30 C271.02,344.23 272.90,355.18 274.34,354.29 C274.92,353.93 275.09,354.33 274.74,355.24 C274.40,356.13 274.93,357.53 275.97,358.47 C277.71,360.05 277.97,359.90 280.85,355.72 C282.62,353.15 285.90,349.61 289.27,346.44 C285.61,349.96 281.99,354.06 279.88,357.32 L 276.11 363.14 ZM 294.14 286.52 C296.06,285.27 298.06,284.14 300.13,283.14 C301.38,282.53 302.64,281.98 303.90,281.46 C310.02,278.93 316.34,277.51 322.68,277.20 C332.16,276.71 341.64,278.71 350.77,283.21 C341.69,278.74 332.15,276.73 322.68,277.20 C316.39,277.52 310.09,278.94 303.90,281.46 C302.76,281.93 301.63,282.44 300.50,282.99 C298.26,284.08 296.14,285.26 294.14,286.52 Z" fill="rgb(100,86,92)"/>
<path d="M 200.56 143.52 C200.43,143.18 200.26,143.00 200.06,143.00 C199.48,143.00 199.00,144.10 199.00,145.45 C199.00,148.77 197.17,149.56 190.51,149.15 C185.53,148.85 184.76,148.51 183.90,146.24 C182.73,143.15 182.80,73.94 183.98,72.03 C184.45,71.27 185.76,70.95 187.14,71.27 C188.44,71.57 190.40,71.43 191.50,70.98 C192.35,70.62 192.18,70.38 190.93,70.23 L 199.48 70.50 L 200.25 75.89 C200.68,78.86 200.91,97.09 200.76,116.39 ZM 322.68 277.20 C316.38,277.52 310.09,278.95 303.90,281.46 C310.02,278.93 316.33,277.51 322.68,277.20 ZM 184.78 70.04 L 181.00 70.00 L 181.00 69.92 Z" fill="rgb(108,244,193)"/>
<path d="M 181.70 151.37 C181.32,150.98 181.00,132.50 181.00,110.30 L 181.00 70.00 L 184.78 70.04 L 190.24 70.21 L 190.93 70.23 C192.18,70.38 192.35,70.62 191.50,70.98 C190.40,71.43 188.44,71.57 187.14,71.27 C185.76,70.95 184.45,71.27 183.98,72.03 C182.80,73.94 182.73,143.15 183.90,146.24 C184.76,148.51 185.53,148.85 190.51,149.15 C197.17,149.56 199.00,148.77 199.00,145.45 C199.00,144.10 199.48,143.00 200.06,143.00 C200.26,143.00 200.43,143.18 200.56,143.52 L 200.50 151.50 L 191.45 151.78 C186.47,151.94 182.09,151.75 181.70,151.37 Z" fill="rgb(115,233,190)"/>
<path d="M 289.37 346.34 L 289.27 346.44 C285.90,349.61 282.62,353.15 280.85,355.72 C277.97,359.90 277.71,360.05 275.97,358.47 C274.93,357.53 274.40,356.13 274.74,355.24 C275.09,354.33 274.92,353.93 274.34,354.29 C272.90,355.18 271.02,344.23 270.57,332.30 C270.25,323.75 270.56,320.90 272.49,314.62 C273.82,310.32 275.60,306.36 277.83,302.74 C278.19,302.20 278.56,301.67 278.93,301.14 C277.87,303.15 277.24,305.55 276.13,310.01 C272.19,325.77 271.84,328.21 272.46,335.63 C273.13,343.60 276.16,355.56 277.95,357.34 C278.84,358.22 279.39,358.02 280.25,356.50 C281.52,354.24 285.42,350.00 289.37,346.34 ZM 322.68 277.20 L 322.68 277.20 C332.15,276.73 341.69,278.74 350.77,283.21 C340.52,278.16 329.45,276.34 318.80,277.54 C320.06,277.38 321.33,277.27 322.59,277.21 L 322.67 277.20 L 322.67 277.20 ZM 298.26 339.36 C299.75,338.29 300.75,337.40 300.78,337.10 C300.79,337.14 300.81,337.16 300.81,337.18 C300.98,337.56 299.84,338.54 298.26,339.36 ZM 284.43 294.54 C284.94,294.02 285.46,293.51 285.98,293.00 C285.69,293.28 285.41,293.56 285.13,293.84 C284.89,294.09 284.66,294.32 284.43,294.54 Z" fill="rgb(111,109,113)"/>
<path d="M 294.14 286.52 C296.14,285.26 298.26,284.08 300.50,282.99 C301.63,282.44 302.76,281.93 303.90,281.46 L 303.90 281.46 L 303.90 281.46 L 303.90 281.46 C304.21,281.33 304.52,281.21 304.84,281.09 C309.45,279.30 314.12,278.12 318.80,277.54 C329.45,276.34 340.52,278.16 350.77,283.21 C358.83,287.17 371.15,298.98 375.27,306.68 C381.06,317.50 383.22,331.94 380.92,344.57 C379.82,350.62 375.31,362.00 374.01,362.00 C373.61,362.00 371.60,359.27 369.54,355.94 C365.92,350.07 354.04,339.00 351.36,339.00 C348.94,339.00 348.95,337.03 351.40,333.29 C358.79,322.00 356.91,305.11 347.19,295.44 C334.95,283.26 313.82,283.60 302.48,296.16 C296.72,302.53 294.54,308.23 294.52,317.00 C294.50,323.36 294.96,325.41 297.50,330.49 C299.07,333.62 300.50,336.50 300.78,337.10 C300.75,337.40 299.75,338.29 298.26,339.36 C298.24,339.38 298.21,339.39 298.18,339.40 C295.89,340.59 292.62,343.23 289.37,346.34 L 289.37 346.34 C285.42,350.00 281.52,354.24 280.25,356.50 C279.39,358.02 278.84,358.22 277.95,357.34 C276.16,355.56 273.13,343.60 272.46,335.63 C271.84,328.21 272.19,325.77 276.13,310.01 C277.24,305.55 277.87,303.15 278.93,301.14 C280.60,298.81 282.44,296.60 284.43,294.54 L 284.43 294.54 C284.66,294.32 284.89,294.08 285.13,293.84 C285.41,293.56 285.69,293.28 285.98,293.00 C288.49,290.60 291.22,288.42 294.14,286.52 Z" fill="rgb(130,120,130)"/>
<path d="M 298.50 211.01 C275.60,207.41 258.06,187.47 258.01,164.96 C257.97,147.51 268.43,131.03 284.39,123.38 C288.27,121.52 292.47,120.00 293.72,120.00 L 296.00 120.00 L 296.00 165.84 L 306.58 187.12 C316.40,206.85 317.04,208.50 315.39,209.70 C314.42,210.42 312.24,211.01 310.56,211.01 C308.88,211.02 306.60,211.20 305.50,211.41 C304.40,211.62 301.25,211.44 298.50,211.01 ZM 311.32 389.01 C301.03,386.31 289.00,379.56 289.00,376.48 C289.00,373.42 294.25,364.20 298.55,359.72 C309.27,348.53 326.69,345.35 341.45,351.87 C350.04,355.67 358.23,365.34 360.98,374.93 C361.74,377.58 361.48,378.08 358.11,380.31 C342.93,390.35 327.44,393.23 311.32,389.01 Z" fill="rgb(138,200,251)"/>
<path d="M 405.51 412.44 C398.88,406.25 397.70,404.70 398.58,403.31 C401.43,398.78 402.63,399.18 410.97,407.47 L 418.96 415.41 L 416.81 417.71 C415.62,418.97 414.39,419.98 414.08,419.95 C413.76,419.92 409.90,416.55 405.51,412.44 ZM 359.31 256.54 C355.18,254.76 350.78,253.32 345.65,252.04 C335.63,249.53 317.12,249.56 305.41,251.81 C323.03,247.55 342.01,248.84 359.31,256.54 ZM 268.12 271.49 C256.05,282.51 247.35,297.01 242.98,314.00 C242.78,314.80 242.59,315.55 242.42,316.27 C243.55,310.33 245.51,304.76 248.56,298.16 C253.39,287.70 260.12,278.76 268.12,271.49 Z" fill="rgb(170,171,173)"/>
<path d="M 418.54 439.32 L 427.43 429.66 C432.32,424.35 436.61,420.00 436.97,420.00 C438.01,420.00 487.47,468.00 487.77,469.31 C487.92,469.96 483.87,474.64 478.77,479.70 L 469.50 488.90 Z" fill="rgb(238,186,135)"/>
<path d="M 0.00 0.00 L 512.00 0.00 L 512.00 512.00 L 0.00 512.00 ZM 388.44 501.62 C395.69,496.08 395.95,494.59 395.98,458.75 C395.99,441.29 396.37,427.00 396.81,427.00 C397.26,427.00 398.90,428.33 400.45,429.95 C402.77,432.37 403.16,433.46 402.63,436.08 C401.30,442.75 403.50,446.85 413.85,457.00 C451.10,493.50 459.02,501.04 462.07,502.90 C466.01,505.30 471.63,505.60 476.28,503.65 C479.64,502.25 498.98,482.71 502.16,477.50 C504.59,473.53 504.59,465.47 502.16,461.50 C501.16,459.85 487.94,446.50 472.80,431.83 C446.58,406.44 445.04,405.13 440.64,404.47 C438.10,404.09 435.01,404.02 433.76,404.31 C431.94,404.74 429.55,403.00 421.55,395.49 L 411.60 386.13 L 415.71 377.32 C423.41,360.81 425.49,351.13 425.36,332.50 C425.26,316.77 422.90,305.35 417.12,292.60 C413.28,284.13 404.39,270.68 399.58,266.05 L 396.00 262.61 L 396.00 169.27 C396.00,87.27 395.81,75.48 394.45,72.22 C392.74,68.11 339.08,13.51 333.00,9.70 L 329.50 7.50 L 175.50 7.50 C26.03,7.50 21.39,7.56 17.66,9.41 C15.55,10.45 12.62,13.12 11.16,15.33 L 8.50 19.35 L 8.50 492.65 L 11.17 496.68 C12.73,499.03 15.64,501.60 18.17,502.86 L 22.50 505.01 L 203.58 504.75 L 384.66 504.50 ZM 24.67 488.34 C24.30,487.97 24.00,383.39 24.00,255.94 C24.00,61.00 24.22,24.13 25.37,23.69 C26.12,23.40 92.72,23.11 173.37,23.04 L 320.00 22.92 L 320.00 74.85 L 322.70 78.06 C327.39,83.63 329.47,84.00 355.97,84.00 L 380.00 84.00 L 380.00 166.00 C380.00,211.10 379.76,248.00 379.46,248.00 C379.17,248.00 374.78,246.02 369.71,243.60 C325.76,222.62 273.75,235.00 244.87,273.33 C241.51,277.80 238.05,282.93 237.19,284.73 L 235.63 288.00 L 140.86 288.00 C72.56,288.00 45.40,288.32 43.61,289.13 C38.38,291.52 38.12,298.87 43.16,302.40 C45.21,303.84 54.70,304.00 137.33,304.00 C224.43,304.00 229.18,304.09 228.54,305.75 C227.45,308.58 225.00,320.92 225.00,323.57 L 225.00 326.00 L 45.11 326.00 L 42.39 328.34 C38.89,331.35 38.73,336.02 42.01,339.51 L 44.35 342.00 L 224.55 342.00 L 225.76 349.64 C227.50,360.55 232.77,375.14 238.53,385.00 C244.70,395.56 260.32,411.73 270.95,418.56 C300.55,437.60 336.47,439.80 368.66,424.55 C373.94,422.05 378.66,420.00 379.15,420.00 C379.64,420.00 379.91,435.02 379.76,454.25 L 379.50 488.50 L 202.42 488.75 C105.03,488.89 25.04,488.70 24.67,488.34 ZM 313.54 417.89 C304.65,416.59 297.42,414.31 288.50,409.97 C267.71,399.87 252.51,382.41 244.85,359.85 C242.04,351.55 241.63,348.92 241.24,336.50 C240.98,328.48 241.29,322.20 242.42,316.27 C242.59,315.55 242.78,314.80 242.98,314.00 C247.35,297.01 256.05,282.51 268.12,271.49 C278.76,261.82 291.67,255.13 305.41,251.81 C317.12,249.56 335.63,249.53 345.65,252.04 C350.78,253.32 355.18,254.76 359.31,256.54 C363.66,258.47 367.91,260.81 372.00,263.57 C377.78,267.47 388.37,276.98 391.73,281.30 C396.00,286.78 401.27,296.17 403.79,302.80 C408.62,315.52 409.49,320.47 409.37,334.50 C409.24,350.66 406.47,361.17 398.32,376.50 C396.04,380.78 386.71,392.10 381.46,396.93 C363.86,413.15 337.30,421.35 313.54,417.89 ZM 342.56 404.98 C362.68,399.85 379.31,386.83 389.77,368.00 C394.70,359.13 397.13,349.80 397.73,337.40 C398.41,323.30 396.51,313.97 390.36,301.17 C386.55,293.25 384.49,290.45 376.69,282.62 C369.18,275.08 365.95,272.63 359.00,269.23 C346.37,263.04 339.69,261.53 325.00,261.54 C314.75,261.54 311.15,261.96 305.00,263.86 C279.75,271.68 262.76,288.68 254.86,314.04 C251.90,323.53 251.64,341.96 254.32,351.70 C259.12,369.15 268.98,383.23 283.99,394.11 C299.74,405.52 323.29,409.89 342.56,404.98 ZM 319.00 225.82 C321.48,225.25 327.33,222.94 332.00,220.68 C343.91,214.92 354.18,204.68 359.81,192.92 C365.43,181.22 366.38,177.11 366.40,164.50 C366.41,154.80 366.06,152.49 363.40,144.96 C359.67,134.40 354.76,126.88 346.66,119.30 C335.08,108.46 320.92,103.00 304.42,103.00 C286.84,103.00 273.26,108.71 260.48,121.49 C246.98,134.98 241.21,149.96 242.36,168.50 C243.35,184.44 249.00,197.00 260.30,208.41 C276.28,224.55 297.28,230.78 319.00,225.82 ZM 212.01 166.49 C213.95,165.49 215.29,163.74 216.02,161.24 C216.76,158.69 217.01,141.62 216.80,107.66 L 216.50 57.82 L 214.14 55.91 C211.99,54.17 209.97,54.00 191.47,54.00 C180.30,54.00 170.44,54.28 169.54,54.62 C165.16,56.30 165.00,58.24 165.00,110.05 C165.00,163.88 165.09,164.76 170.84,166.87 C172.30,167.40 181.51,167.88 191.30,167.92 C205.31,167.98 209.72,167.68 212.01,166.49 ZM 152.59 164.69 L 155.00 161.89 L 155.00 84.91 L 152.55 82.45 C150.10,80.01 150.02,80.00 129.68,80.00 C110.55,80.00 109.11,80.13 106.63,82.07 L 104.00 84.15 L 104.00 123.42 C104.00,159.72 104.13,162.81 105.77,164.29 C109.32,167.50 112.53,167.93 131.34,167.72 L 150.18 167.50 ZM 246.32 264.84 C251.31,262.18 252.58,256.08 248.96,252.19 L 246.92 250.00 L 145.90 250.00 C76.60,250.00 44.25,250.33 42.89,251.06 C39.93,252.64 38.67,256.78 40.09,260.22 C40.43,261.04 40.63,261.73 40.99,262.33 C43.16,265.93 51.30,265.93 131.79,265.96 C136.09,265.96 140.60,265.96 145.32,265.96 C218.59,265.99 244.70,265.70 246.32,264.84 ZM 87.62 166.98 C93.12,165.07 93.44,163.60 93.83,138.64 C94.23,113.26 93.76,107.76 90.93,104.93 C89.15,103.15 87.40,103.00 67.95,103.00 C46.94,103.00 46.91,103.00 44.45,105.45 L 42.00 107.91 L 42.00 133.91 C42.00,151.14 42.38,160.74 43.13,162.39 C45.29,167.12 48.94,167.95 67.60,167.98 C77.01,167.99 86.02,167.54 87.62,166.98 ZM 248.42 225.08 C251.63,222.06 251.90,216.90 249.00,214.00 C247.03,212.03 245.67,212.00 145.93,212.00 C76.61,212.00 44.25,212.33 42.89,213.06 C39.98,214.62 38.67,218.78 40.04,222.10 C40.39,222.93 40.60,223.65 40.97,224.26 C43.26,227.99 51.67,227.97 133.76,227.77 L 133.76 227.77 C137.88,227.76 142.18,227.75 146.67,227.74 L 245.84 227.50 ZM 213.08 388.08 C216.68,384.47 216.85,380.76 213.55,377.45 L 211.09 375.00 L 156.63 375.00 C126.67,375.00 101.44,375.28 100.54,375.62 C98.72,376.32 96.00,381.06 96.00,383.53 C96.00,384.42 97.32,386.47 98.92,388.08 L 101.85 391.00 L 210.15 391.00 ZM 212.09 433.72 C216.46,430.36 217.09,425.00 213.52,421.43 L 211.04 418.95 L 155.56 419.23 C106.90,419.47 99.06,419.29 97.22,422.53 C96.75,423.35 96.67,424.40 96.41,425.72 C95.87,428.41 96.25,429.41 98.81,431.96 L 101.85 435.00 L 156.17 434.97 C197.30,434.94 210.89,434.64 212.09,433.72 ZM 318.41 330.11 C311.76,326.05 308.80,319.18 310.92,312.73 C314.91,300.66 332.31,299.05 338.08,310.21 C344.79,323.19 330.60,337.54 318.41,330.11 ZM 336.00 52.00 C336.00,43.20 336.34,36.00 336.76,36.00 C338.17,36.00 368.08,66.59 367.37,67.30 C366.98,67.68 359.77,68.00 351.33,68.00 L 336.00 68.00 ZM 66.36 438.62 C76.03,434.58 77.60,420.95 68.91,416.46 C63.77,413.80 56.36,414.92 52.81,418.89 C47.46,424.88 49.72,434.17 57.47,438.00 C60.03,439.27 61.20,439.86 62.37,439.87 C63.37,439.87 64.37,439.45 66.24,438.67 ZM 69.86 392.47 C75.85,387.42 76.28,379.43 70.84,374.00 C68.23,371.39 67.13,371.00 62.29,371.00 C57.22,371.00 56.44,371.31 53.37,374.57 C50.69,377.41 50.00,378.97 50.00,382.17 C50.00,389.73 55.14,394.93 62.67,394.97 C65.71,394.99 67.67,394.31 69.86,392.47 Z" fill="rgb(240,242,244)"/>
<path d="M 120.70 151.37 C120.32,150.98 120.00,138.37 120.00,123.33 L 120.00 96.00 L 139.03 96.00 L 138.91 109.09 C138.75,101.68 138.37,99.23 137.57,98.43 C136.58,97.44 133.80,97.00 128.57,97.00 L 121.00 97.00 L 121.00 120.78 C121.00,139.88 121.28,144.96 122.44,146.62 C123.64,148.32 124.90,148.66 129.69,148.59 C134.71,148.51 135.63,148.19 136.49,146.25 C137.03,145.01 137.82,144.00 138.24,144.00 C138.37,144.00 138.49,143.05 138.60,141.37 L 138.50 151.50 L 129.95 151.79 C125.25,151.94 121.09,151.76 120.70,151.37 ZM 326.71 156.22 C321.49,156.11 317.98,155.91 315.90,155.59 L 326.50 156.00 C333.65,156.27 340.62,156.50 342.00,156.50 C345.62,156.50 347.04,154.10 346.03,149.65 C344.87,144.47 337.11,133.07 334.27,132.35 C333.00,132.04 331.15,130.74 330.16,129.47 C326.57,124.91 313.44,120.56 312.80,123.72 C312.64,124.56 312.73,132.06 313.00,140.38 L 313.46 154.34 C313.25,152.53 312.94,145.10 312.75,136.75 L 312.36 120.00 L 314.96 120.00 C319.78,120.00 331.87,126.69 337.53,132.49 C343.03,138.12 348.60,148.17 349.18,153.50 C349.20,153.71 349.23,153.91 349.25,154.09 C349.33,154.69 349.40,155.15 349.23,155.51 C348.66,156.71 345.39,156.64 330.92,156.31 C329.61,156.28 328.21,156.25 326.71,156.22 Z" fill="rgb(246,223,132)"/>
<path d="M 58.67 151.33 C58.30,150.97 58.00,143.54 58.00,134.83 L 58.00 119.00 L 76.89 119.00 L 77.20 132.75 C77.36,140.31 77.36,147.74 77.18,149.25 L 76.87 152.00 L 68.10 152.00 C63.28,152.00 59.03,151.70 58.67,151.33 ZM 329.38 196.88 C325.59,189.58 318.00,173.92 318.00,173.41 C318.00,173.18 325.25,173.00 334.11,173.00 L 350.22 173.00 L 349.58 175.75 C348.16,181.84 341.93,192.69 337.14,197.38 L 332.17 202.26 Z" fill="rgb(247,101,113)"/>
<path d="M 326.50 156.00 L 313.50 155.50 L 313.00 140.38 C312.73,132.06 312.64,124.56 312.80,123.72 C313.44,120.56 326.57,124.91 330.16,129.47 C331.15,130.74 333.00,132.04 334.27,132.35 C337.11,133.07 344.87,144.47 346.03,149.65 C347.04,154.10 345.62,156.50 342.00,156.50 C340.62,156.50 333.65,156.27 326.50,156.00 ZM 122.44 146.62 C121.28,144.96 121.00,139.88 121.00,120.78 L 121.00 97.00 L 128.57 97.00 C133.80,97.00 136.58,97.44 137.57,98.43 C138.72,99.58 139.00,104.13 139.00,121.93 C139.00,134.07 138.66,144.00 138.24,144.00 C137.82,144.00 137.03,145.01 136.49,146.25 C135.63,148.19 134.71,148.51 129.69,148.59 C124.90,148.66 123.64,148.32 122.44,146.62 Z" fill="rgb(253,224,121)"/>
</g>
</svg>